<svg width="64" height="64" viewBox="0 0 64 64" fill="none" xmlns="http://www.w3.org/2000/svg">
<path d="M23.6065 36.8198C22.2136 35.4269 21.1087 33.7733 20.3549 31.9534C19.6011 30.1336 19.2131 28.183 19.2131 26.2132C19.2131 24.2434 19.6011 22.2928 20.3549 20.4729C21.1087 18.6531 22.2136 16.9995 23.6065 15.6066C24.9993 14.2137 26.6529 13.1088 28.4728 12.355C30.2927 11.6012 32.2432 11.2132 34.2131 11.2132C36.1829 11.2132 38.1334 11.6012 39.9533 12.355C41.7732 13.1088 43.4268 14.2137 44.8197 15.6066L34.2131 26.2132L23.6065 36.8198Z" fill="#FAFAFA"/>
<path d="M40.8198 27.6066C42.2127 28.9995 43.3176 30.6531 44.0714 32.4729C44.8252 34.2928 45.2132 36.2434 45.2132 38.2132C45.2132 40.183 44.8252 42.1336 44.0714 43.9534C43.3176 45.7733 42.2127 47.4269 40.8198 48.8198C39.4269 50.2127 37.7733 51.3176 35.9535 52.0714C34.1336 52.8252 32.183 53.2132 30.2132 53.2132C28.2434 53.2132 26.2928 52.8252 24.473 52.0714C22.6531 51.3176 20.9995 50.2127 19.6066 48.8198L30.2132 38.2132L40.8198 27.6066Z" fill="#FAFAFA"/>
</svg>
